# xmcd
#
# Track frame offsets: 
#        150
#        20821
#        38243
#        54084
#        69225
#        89844
#        106446
#        125070
#        147495
#        163046
#        185352
#
# Disc length: 2713 seconds
#
# Revision: 0
# Processed by: cddbd v1.5.2PL0 Copyright (c) Steve Scherf et al.
# Submitted via: ExactAudioCopy v1.0b3
#
DISCID=9e0a970b
DTITLE=Turnpike Troubadours - Goodbye Normal Street
DYEAR=2012
DGENRE=Country
TTITLE0=Gin Smoke and Lies
TTITLE1=Before the Devil Knows We're Dead
TTITLE2=Southeastern Son
TTITLE3=Blue Star
TTITLE4=Call a Spade a Spade
TTITLE5=Morgan Street
TTITLE6=Gone, Gone, Gone
TTITLE7=Good Lord Lorrie
TTITLE8=Empty as a Drum
TTITLE9=Wrecked
TTITLE10=Quit While I'm Ahead
EXTD=
EXTT0=
EXTT1=
EXTT2=
EXTT3=
EXTT4=
EXTT5=
EXTT6=
EXTT7=
EXTT8=
EXTT9=
EXTT10=
PLAYORDER=
